# xmcd CD database file
#
# Track frame offsets:
#	150
#	30970
#	61245
#	93870
#	121903
#	137198
#	177430
#	210015
#	235205
#	274673
#
# Disc length: 4469 seconds
#
# Revision: 0
# Processed by: cddbd v1.4PL0 Copyright (c) Steve Scherf et al.
# Submitted via: CDex 1.50beta10
#
DISCID=7b11730a
DTITLE=Mickey Tucker - Sweet lotus lips
DYEAR=1978
DGENRE=Jazz
TTITLE0=Gettin' there
TTITLE1=Return ticket
TTITLE2=All of you
TTITLE3=Sweet lotus lips
TTITLE4=Portrait of a peaceful scene
TTITLE5=Theme for a woogie-boogie
TTITLE6=Kap'n Kryptonite
TTITLE7=A tribute to Bean
TTITLE8=Japanese soundscape
TTITLE9=Bogue ballad bossa
EXTD=YEAR: 1978
EXTT0=
EXTT1=
EXTT2=
EXTT3=
EXTT4=
EXTT5=
EXTT6=
EXTT7=
EXTT8=
EXTT9=
PLAYORDER=
